<svg xmlns="http://www.w3.org/2000/svg" viewBox="0 0 24 24"><defs><style>.a{fill:#012169;}.b{fill:#fff;}.c{fill:#c8102e;}.d{fill:#bd3d44;}.e{fill:#192f5d;}</style></defs><path class="a" d="M515.54,256A255.63,255.63,0,0,1,511,304a253,253,0,0,1-38.93,94.27q-4.89,7.25-10.27,14.13a254.07,254.07,0,0,1-152.28,93.49,257.44,257.44,0,0,1-96,.19,253.38,253.38,0,0,1-95.22-39.34q-7.68-5.19-14.94-10.95a253,253,0,0,1-22-19.58l-1.69-1.71c-.5-.5-1-1-1.47-1.5a255.09,255.09,0,0,1-27.76-34.11q-1.65-2.42-3.24-4.89A251.94,251.94,0,0,1,26.1,354q-3.71-8.83-6.73-18-3.42-10.32-6-21-1.3-5.46-2.36-11a253.7,253.7,0,0,1-3.82-29q-.69-9.4-.7-19,0-10.09.78-20a252.71,252.71,0,0,1,3.74-28q1.15-6,2.6-12,2.44-10.17,5.71-20,3.19-9.67,7.15-19,1.69-4,3.54-8h0q2.11-4.59,4.43-9.07,2.05-4,4.25-7.93c.7-1.27,1.42-2.52,2.15-3.77q3.31-5.71,6.93-11.23l.56-.85q4.88-7.41,10.25-14.45A255.63,255.63,0,0,1,79.14,78c.82-.84,1.65-1.67,2.48-2.5a254.85,254.85,0,0,1,34-28.4q6.84-4.77,14-9.1a251.84,251.84,0,0,1,26.64-14q2.25-1,4.53-2c1.59-.69,3.19-1.35,4.8-2s3.45-1.38,5.19-2q5.31-2,10.74-3.79a252.7,252.7,0,0,1,32-8.25,257.44,257.44,0,0,1,96,.19,251.42,251.42,0,0,1,32,8.39q9.91,3.3,19.46,7.39l.27.11c2.7,1.15,5.38,2.36,8,3.6,1.07.5,2.12,1,3.18,1.52q10.25,5,20,10.88h3.1v1.9q3.24,2,6.42,4.15,7.85,5.21,15.26,11a255.11,255.11,0,0,1,24,21.24l.78.79A254.72,254.72,0,0,1,502.71,176,251.19,251.19,0,0,1,511,208,255.63,255.63,0,0,1,515.54,256Z"/><path class="b" d="M472.09,398.27q-4.89,7.25-10.27,14.13a255.86,255.86,0,0,1-57.59,54l-62.69-61.71-32-31.5L271.73,336l-12.19-12-11.87,12-34.13,34.49-32,32.35-63.22,63.9q-7.68-5.19-14.94-10.95a253,253,0,0,1-22-19.58l-1.69-1.71c-.5-.5-1-1-1.47-1.5a255.09,255.09,0,0,1-27.76-34.11L55.27,394l39.79-40L113,336l20.89-21,10.94-11,28.85-29,7.9-7.95,10-10.05-10-9.84L180,245.6l-2.64-2.6-7.11-7-.52-.5h0L168,233.8l-17.38-17.1-.71-.7-8.13-8-12.2-12-20.33-20L89.9,157,49.24,117l-.86-.85q4.88-7.41,10.25-14.45A255.63,255.63,0,0,1,79.14,78c.82-.84,1.65-1.67,2.48-2.5a254.85,254.85,0,0,1,34-28.4L129.5,60.66l3.11,3.05L147.2,78l13.23,13,1.63,1.6,19.48,19.08L187,117l5.33,5.22.17.17,21,20.57,14.34,14,19.4,19,12.26,12,11.87-12,.93-.94,2-2,15.86-16,11.62-11.75,3.46-3.49,4.25-4.3,19.77-20,.47-.48,1.39-1.4,5.56-5.62,4.81-4.86.12-.12,15.19-15.36,4.24-4.28L368.37,78l.05-.06.94-.94,26.18-26.46L402,44.05q7.85,5.21,15.26,11a255.11,255.11,0,0,1,24,21.24l.78.79a254.21,254.21,0,0,1,28.52,34.4L406.71,176,375,208l-33.5,33.85-14,14.15,14,13.78L376.31,304l32.51,32Z"/><path class="c" d="M193.42,336l-2.9-9-1-3-8,8-3.94,4-17.9,18-39.78,40L81.13,433l-1.49,1.5,1.69,1.71a253,253,0,0,0,22,19.58l78.16-78.67,19-19.12Zm190.45,0-16.33-16-26-3.85-28-4.15L338,336l3.52,3.45,98.95,97a252.52,252.52,0,0,0,21.33-24.06ZM441.25,76.29a255.11,255.11,0,0,0-24-21.24L395.54,77l-1,1-38.49,39-14.54,14.73-20,20.27.45,5,.28,3,.4,4.44.84,9.25h0l.21,2.3,0,.49,1.44,15.84.33,3.67,16-16.33,3.59-3.67L442,77.08ZM184.24,176l-2.7-2.65L164.84,157l-36.18-35.43-.82-.81L124,117,98.2,91.74l-2.3-2.25L84.17,78l-2.55-2.5c-.83.83-1.66,1.66-2.48,2.5a255.63,255.63,0,0,0-20.51,23.7L62,105l4.54,4.5,5.83,5.79L74.05,117l2.55,2.53L89.16,132l1.69,1.67h0l6.47,6.42,4.23,4.2L114.35,157l14.81,14.7,2.63,2.61,1.7,1.69,6,6,26.22,3.56,5.82.78,10,1.35,17,2.31Z"/><path class="b" d="M309.54,6.11a257.44,257.44,0,0,0-96-.19,252.7,252.7,0,0,0-32,8.25V497.83a252.7,252.7,0,0,0,32,8.25,257.44,257.44,0,0,0,96-.19,251.42,251.42,0,0,0,32-8.39V14.5A251.42,251.42,0,0,0,309.54,6.11ZM511,208a251.19,251.19,0,0,0-8.31-32H338.64l-7.1-5.14L324.45,176h-.73l-.21-2.3h0l2.28-7-3.12-2.26-.4-4.44H328l1-3H204.14l1,3,2.17,6.7-5.75,4.16L194.45,176H19.37q-3.26,9.83-5.71,20-1.46,6-2.6,12a252.71,252.71,0,0,0-3.74,28q-.78,9.9-.78,20,0,9.58.7,19a253.7,253.7,0,0,0,3.82,29q1,5.53,2.36,11,2.52,10.68,6,21H502.71A251.19,251.19,0,0,0,511,304a257.13,257.13,0,0,0,0-96Z"/><path class="c" d="M511,208h-500a252.71,252.71,0,0,0-3.74,28q-.78,9.9-.78,20,0,9.58.7,19a253.7,253.7,0,0,0,3.82,29H511a257.13,257.13,0,0,0,0-96ZM261,1.5a256.36,256.36,0,0,0-47.5,4.42V506.08a257.44,257.44,0,0,0,96-.19V6.11A256.62,256.62,0,0,0,261,1.5Z"/><path class="d" d="M441.25,76.29,81.33,436.21l-1.69-1.71c-.5-.5-1-1-1.47-1.5a255.09,255.09,0,0,1-27.76-34.11q-1.65-2.42-3.24-4.89A251.94,251.94,0,0,1,26.1,354q-3.71-8.83-6.73-18-3.42-10.32-6-21-1.3-5.46-2.36-11a253.7,253.7,0,0,1-3.82-29q-.69-9.4-.7-19,0-10.09.78-20a252.71,252.71,0,0,1,3.74-28q1.15-6,2.6-12,2.44-10.17,5.71-20,3.19-9.67,7.15-19,1.69-4,3.54-8h0q2.11-4.59,4.43-9.07,2.05-4,4.25-7.93c.7-1.27,1.42-2.52,2.15-3.77q3.31-5.71,6.93-11.23l.56-.85q4.88-7.41,10.25-14.45A255.63,255.63,0,0,1,79.14,78c.82-.84,1.65-1.67,2.48-2.5a254.85,254.85,0,0,1,34-28.4q6.84-4.77,14-9.1a251.84,251.84,0,0,1,26.64-14q2.25-1,4.53-2c1.59-.69,3.19-1.35,4.8-2s3.45-1.38,5.19-2q5.31-2,10.74-3.79a252.7,252.7,0,0,1,32-8.25,257.44,257.44,0,0,1,96,.19,251.42,251.42,0,0,1,32,8.39q9.91,3.3,19.46,7.39l.27.11c2.7,1.15,5.38,2.36,8,3.6,1.07.5,2.12,1,3.18,1.52q10.25,5,20,10.88h3.1v1.9q3.24,2,6.42,4.15,7.85,5.21,15.26,11A255.11,255.11,0,0,1,441.25,76.29Z"/><path class="b" d="M78.17,433c.49.5,1,1,1.47,1.5l1.69,1.71L84.54,433ZM26.1,354a251.94,251.94,0,0,0,21.07,40h76.37l40-40ZM7.24,275a253.7,253.7,0,0,0,3.82,29q1,5.53,2.36,11H202.54l40-40Zm6.42-79q-1.46,6-2.6,12a252.71,252.71,0,0,0-3.74,28H281.54l40-40Zm34.16-79q-3.62,5.52-6.93,11.23c-.73,1.25-1.45,2.5-2.15,3.77q-2.19,3.92-4.25,7.93-2.31,4.48-4.43,9.07h0q-1.85,4-3.54,8h334l40-40Zm308.26,0H124l3.84,3.76.82.81L164.84,157H322l-.45-5,20-20.27Zm0,0H124l3.84,3.76.82.81L164.84,157H322l-.45-5,20-20.27Zm0,0H124l3.84,3.76.82.81L164.84,157H322l-.45-5,20-20.27Zm0,0H124l3.84,3.76.82.81L164.84,157H322l-.45-5,20-20.27Zm0,0H124l3.84,3.76.82.81L164.84,157H322l-.45-5,20-20.27Zm0,0H124l3.84,3.76.82.81L164.84,157H322l-.45-5,20-20.27Zm0,0H124l3.84,3.76.82.81L164.84,157H322l-.45-5,20-20.27Zm0,0H124l3.84,3.76.82.81L164.84,157H322l-.45-5,20-20.27Zm0,0H124l3.84,3.76.82.81L164.84,157H322l-.45-5,20-20.27Zm0,0H124l3.84,3.76.82.81L164.84,157H322l-.45-5,20-20.27Zm0,0H124l3.84,3.76.82.81L164.84,157H322l-.45-5,20-20.27Zm0,0H124l3.84,3.76.82.81L164.84,157H322l-.45-5,20-20.27Zm0,0H124l3.84,3.76.82.81L164.84,157H322l-.45-5,20-20.27Zm0,0H124l3.84,3.76.82.81L164.84,157H322l-.45-5,20-20.27Zm0,0H124l3.84,3.76.82.81L164.84,157H322l-.45-5,20-20.27Zm0,0H124l3.84,3.76.82.81L164.84,157H322l-.45-5,20-20.27Zm61.14-61.95q-7.41-5.79-15.26-11-3.18-2.13-6.42-4.15V38H129.64q-7.15,4.32-14,9.1a254.85,254.85,0,0,0-34,28.4c-.83.83-1.66,1.66-2.48,2.5h360.4l1.71-1.71A255.11,255.11,0,0,0,417.22,55.05ZM124,117l3.84,3.76.82.81L164.84,157H322l-.45-5,20-20.27L356.08,117Zm232.08,0H124l3.84,3.76.82.81L164.84,157H322l-.45-5,20-20.27Zm0,0H124l3.84,3.76.82.81L164.84,157H322l-.45-5,20-20.27Zm0,0H124l3.84,3.76.82.81L164.84,157H322l-.45-5,20-20.27Zm0,0H124l3.84,3.76.82.81L164.84,157H322l-.45-5,20-20.27Zm0,0H124l3.84,3.76.82.81L164.84,157H322l-.45-5,20-20.27Zm0,0H124l3.84,3.76.82.81L164.84,157H322l-.45-5,20-20.27Zm0,0H124l3.84,3.76.82.81L164.84,157H322l-.45-5,20-20.27Zm0,0H124l3.84,3.76.82.81L164.84,157H322l-.45-5,20-20.27Zm0,0H124l3.84,3.76.82.81L164.84,157H322l-.45-5,20-20.27Zm0,0H124l3.84,3.76.82.81L164.84,157H322l-.45-5,20-20.27Zm0,0H124l3.84,3.76.82.81L164.84,157H322l-.45-5,20-20.27Zm0,0H124l3.84,3.76.82.81L164.84,157H322l-.45-5,20-20.27Zm0,0H124l3.84,3.76.82.81L164.84,157H322l-.45-5,20-20.27Zm0,0H124l3.84,3.76.82.81L164.84,157H322l-.45-5,20-20.27Zm0,0H124l3.84,3.76.82.81L164.84,157H322l-.45-5,20-20.27Z"/><path class="e" d="M395.54,38v84l-153,153H7.24q-.69-9.4-.7-19,0-10.09.78-20a252.71,252.71,0,0,1,3.74-28q1.15-6,2.6-12,2.44-10.17,5.71-20,3.19-9.67,7.15-19,1.69-4,3.54-8h0q2.11-4.59,4.43-9.07,2.05-4,4.25-7.93c.7-1.27,1.42-2.52,2.15-3.77q3.31-5.71,6.93-11.23l.56-.85q4.88-7.41,10.25-14.45A255.63,255.63,0,0,1,79.14,78c.82-.84,1.65-1.67,2.48-2.5a254.85,254.85,0,0,1,34-28.4q6.84-4.77,14-9.1a251.84,251.84,0,0,1,26.64-14q2.25-1,4.53-2c1.59-.69,3.19-1.35,4.8-2s3.45-1.38,5.19-2q5.31-2,10.74-3.79a252.7,252.7,0,0,1,32-8.25,257.44,257.44,0,0,1,96,.19,251.42,251.42,0,0,1,32,8.39q9.91,3.3,19.46,7.39l.27.11c2.7,1.15,5.38,2.36,8,3.6,1.07.5,2.12,1,3.18,1.52q10.25,5,20,10.88Z"/><path class="b" d="M181.54,23.45l-7.25,5.25,3,9.3.52,1.6L175.63,38l-7.09-5.14L161.45,38l-2.21,1.6.52-1.6,3-9.3L156.28,24q2.25-1,4.53-2H165l.65-2q2.58-1,5.19-2l1.32,4h11.42Z"/><path class="b" d="M233.54,11l9.3,28.6L218.54,22h30l-24.3,17.6Z"/><path class="b" d="M298.54,11l9.3,28.6L283.54,22h30l-24.3,17.6Z"/><path class="b" d="M373.84,39.6,371.63,38l-7.09-5.14L357.45,38l-2.21,1.6.52-1.6,3-9.3L349.54,22H361l0-.11.27.11c2.7,1.15,5.38,2.36,8,3.6,1.07.5,2.12,1,3.18,1.52l-2.18,1.58,3,9.3Z"/><path class="b" d="M136.54,39l9.3,28.6L121.54,50h30l-24.3,17.6Z"/><path class="b" d="M201.54,39l9.3,28.6L186.54,50h30l-24.3,17.6Z"/><path class="b" d="M266.54,39l9.3,28.6L251.54,50h30l-24.3,17.6Z"/><path class="b" d="M331.54,39l9.3,28.6L316.54,50h30l-24.3,17.6Z"/><path class="b" d="M103.54,66l9.3,28.6L88.54,77h30L94.24,94.6Z"/><path class="b" d="M168.54,66l9.3,28.6L153.54,77h30l-24.3,17.6Z"/><path class="b" d="M233.54,66l9.3,28.6L218.54,77h30l-24.3,17.6Z"/><path class="b" d="M298.54,66l9.3,28.6L283.54,77h30l-24.3,17.6Z"/><path class="b" d="M364.54,66l9.3,28.6L349.54,77h30l-24.3,17.6Z"/><path class="b" d="M71.54,94l9.3,28.6L56.54,105h30l-24.3,17.6Z"/><path class="b" d="M136.54,94l9.3,28.6L121.54,105h30l-24.3,17.6Z"/><path class="b" d="M201.54,94l9.3,28.6L186.54,105h30l-24.3,17.6Z"/><path class="b" d="M266.54,94l9.3,28.6L251.54,105h30l-24.3,17.6Z"/><path class="b" d="M331.54,94l9.3,28.6L316.54,105h30l-24.3,17.6Z"/><path class="b" d="M44.29,138.7l3.55,10.9-9.3-6.74L30.06,149q2.11-4.59,4.43-9.07,2.05-4,4.25-7.93c.7-1.27,1.42-2.52,2.15-3.77L42.12,132H53.54Z"/><path class="b" d="M103.54,121l9.3,28.6L88.54,132h30l-24.3,17.6Z"/><path class="b" d="M168.54,121l9.3,28.6L153.54,132h30l-24.3,17.6Z"/><path class="b" d="M233.54,121l9.3,28.6L218.54,132h30l-24.3,17.6Z"/><path class="b" d="M298.54,121l9.3,28.6L283.54,132h30l-24.3,17.6Z"/><polygon class="b" points="370.29 138.7 372.39 145.15 370.42 147.12 364.54 142.86 355.24 149.6 358.79 138.7 349.54 132 360.96 132 364.54 121 368.12 132 379.54 132 370.29 138.7"/><path class="b" d="M71.54,149l9.3,28.6L56.54,160h30l-24.3,17.6Z"/><path class="b" d="M136.54,149l9.3,28.6L121.54,160h30l-24.3,17.6Z"/><path class="b" d="M201.54,149l9.3,28.6L186.54,160h30l-24.3,17.6Z"/><path class="b" d="M266.54,149l9.3,28.6L251.54,160h30l-24.3,17.6Z"/><polygon class="b" points="337.29 166.7 340.62 176.92 340.32 177.22 331.54 170.86 322.24 177.6 325.79 166.7 316.54 160 327.96 160 328.94 157 331.54 149 334.14 157 335.12 160 346.54 160 337.29 166.7"/><path class="b" d="M38.54,177l9.3,28.6L23.54,188h30l-24.3,17.6Z"/><path class="b" d="M103.54,177l9.3,28.6L88.54,188h30l-24.3,17.6Z"/><path class="b" d="M168.54,177l9.3,28.6L153.54,188h30l-24.3,17.6Z"/><path class="b" d="M233.54,177l9.3,28.6L218.54,188h30l-24.3,17.6Z"/><path class="b" d="M298.54,177l9.3,28.6L283.54,188h30l-24.3,17.6Z"/><path class="b" d="M71.54,205l9.3,28.6L56.54,216h30l-24.3,17.6Z"/><path class="b" d="M136.54,205l9.3,28.6L121.54,216h30l-24.3,17.6Z"/><path class="b" d="M201.54,205l9.3,28.6L186.54,216h30l-24.3,17.6Z"/><path class="b" d="M266.54,205l9.3,28.6L251.54,216h30l-24.3,17.6Z"/><path class="b" d="M38.54,232l9.3,28.6L23.54,243h30l-24.3,17.6Z"/><path class="b" d="M103.54,232l9.3,28.6L88.54,243h30l-24.3,17.6Z"/><path class="b" d="M168.54,232l9.3,28.6L153.54,243h30l-24.3,17.6Z"/><path class="b" d="M233.54,232l9.3,28.6L218.54,243h30l-24.3,17.6Z"/></svg>