<?xml version="1.0" encoding="utf-8"?>
<!-- Generator: Adobe Illustrator 26.3.1, SVG Export Plug-In . SVG Version: 6.00 Build 0)  -->
<svg version="1.1" id="Layer_1" xmlns:svgjs="http://svgjs.dev/svgjs"
	 xmlns="http://www.w3.org/2000/svg" xmlns:xlink="http://www.w3.org/1999/xlink" x="0px" y="0px" width="2400px" height="800px"
	 viewBox="0 0 2400 800" style="enable-background:new 0 0 2400 800;" xml:space="preserve">
<style type="text/css">
	.st0{opacity:0.05;fill:#3AA89B;enable-background:new    ;}
	.st1{opacity:0.29;fill:#3AA89B;enable-background:new    ;}
	.st2{opacity:0.53;fill:#3AA89B;enable-background:new    ;}
	.st3{opacity:0.76;fill:#3AA89B;enable-background:new    ;}
	.st4{fill:#3AA89B;}
</style>
<g transform="matrix(1,0,0,1,4.3314208984375,282.90450435876846)">
	<path class="st0" d="M2395.668,355.766v161.33h-2400v-153.86c150.19-81.97,277.57-28.01,475.67-27.6c200,0.42,280,32.42,480,32
		c200-0.41,280-33.58,480-34c200-0.41,277.92,27.42,480,32C2109.739,370.145,2292.479,358.176,2395.668,355.766z"/>
	<path class="st1" d="M2395.668,382.766v134.33h-2400v-126.86c150.19-81.97,277.57-28.01,475.67-27.6c200,0.42,280,32.42,480,32
		c200-0.41,280-33.58,480-34c200-0.41,277.92,27.42,480,32C2109.739,397.145,2292.479,385.176,2395.668,382.766z"/>
	<path class="st2" d="M2395.668,409.766v107.33h-2400v-99.86c150.19-81.97,277.57-28.01,475.67-27.6c200,0.42,280,32.42,480,32
		c200-0.41,280-33.58,480-34c200-0.41,277.92,27.42,480,32C2109.739,424.145,2292.479,412.176,2395.668,409.766z"/>
	<path class="st3" d="M2395.668,436.766v80.33h-2400v-72.86c150.19-81.97,277.57-28.01,475.67-27.6c200,0.42,280,32.42,480,32
		c200-0.41,280-33.58,480-34c200-0.41,277.92,27.42,480,32C2109.739,451.145,2292.479,439.176,2395.668,436.766z"/>
	<path class="st4" d="M2395.668,463.766v53.33h-2400v-45.86c150.19-81.97,277.57-28.01,475.67-27.6c200,0.42,280,32.42,480,32
		c200-0.41,280-33.58,480-34c200-0.41,277.92,27.42,480,32C2109.739,478.145,2292.479,466.176,2395.668,463.766z"/>
</g>
</svg>
