<?xml version="1.0" encoding="utf-8"?>
<!-- Generator: Adobe Illustrator 26.3.1, SVG Export Plug-In . SVG Version: 6.00 Build 0)  -->
<svg version="1.1" id="Layer_1" xmlns:svgjs="http://svgjs.dev/svgjs"
	 xmlns="http://www.w3.org/2000/svg" xmlns:xlink="http://www.w3.org/1999/xlink" x="0px" y="0px" width="2400px" height="800px"
	 viewBox="0 0 2400 800" style="enable-background:new 0 0 2400 800;" xml:space="preserve">
<style type="text/css">
	.st0{opacity:0.05;fill:#3AA89B;enable-background:new    ;}
	.st1{opacity:0.29;fill:#3AA89B;enable-background:new    ;}
	.st2{opacity:0.53;fill:#3AA89B;enable-background:new    ;}
	.st3{opacity:0.76;fill:#3AA89B;enable-background:new    ;}
	.st4{fill:#3AA89B;}
</style>
<g transform="matrix(1,0,0,1,4.3314208984375,278.8943991661072)">
	<path class="st0" d="M2395.668-157.272v-108c-103.19-0.6-285.93-6.27-484.33-1.97c-202.08,4.37-280,24.66-480,23
		c-200-1.67-280-29.13-480-31c-200-1.88-280,23.25-480,22c-198.1-1.24-325.48,54.67-475.67-25.65v108
		c150.19,80.32,277.57,24.41,475.67,25.65c200,1.25,280-23.88,480-22c200,1.87,280,29.33,480,31c200,1.66,277.92-18.63,480-23
		C2109.739-163.542,2292.479-157.872,2395.668-157.272z"/>
	<path class="st1" d="M2395.668-184.272v-81c-103.19-0.6-285.93-6.27-484.33-1.97c-202.08,4.37-280,24.66-480,23
		c-200-1.67-280-29.13-480-31c-200-1.88-280,23.25-480,22c-198.1-1.24-325.48,54.67-475.67-25.65v81
		c150.19,80.32,277.57,24.41,475.67,25.65c200,1.25,280-23.88,480-22c200,1.87,280,29.33,480,31c200,1.66,277.92-18.63,480-23
		C2109.739-190.542,2292.479-184.872,2395.668-184.272z"/>
	<path class="st2" d="M2395.668-211.272v-54c-103.19-0.6-285.93-6.27-484.33-1.97c-202.08,4.37-280,24.66-480,23
		c-200-1.67-280-29.13-480-31c-200-1.88-280,23.25-480,22c-198.1-1.24-325.48,54.67-475.67-25.65v54
		c150.19,80.32,277.57,24.41,475.67,25.65c200,1.25,280-23.88,480-22c200,1.87,280,29.33,480,31c200,1.66,277.92-18.63,480-23
		C2109.739-217.542,2292.479-211.872,2395.668-211.272z"/>
	<path class="st3" d="M2395.668-238.272v-27c-103.19-0.6-285.93-6.27-484.33-1.97c-202.08,4.37-280,24.66-480,23
		c-200-1.67-280-29.13-480-31c-200-1.88-280,23.25-480,22c-198.1-1.24-325.48,54.67-475.67-25.65v27
		c150.19,80.32,277.57,24.41,475.67,25.65c200,1.25,280-23.88,480-22c200,1.87,280,29.33,480,31c200,1.66,277.92-18.63,480-23
		C2109.739-244.542,2292.479-238.872,2395.668-238.272z"/>
	<path class="st4" d="M2395.668-278.894v13.62c-103.19-0.6-285.93-6.27-484.33-1.97c-202.08,4.37-280,24.66-480,23
		c-200-1.67-280-29.13-480-31c-200-1.88-280,23.25-480,22c-198.1-1.24-325.48,54.67-475.67-25.65H2395.668z"/>
</g>
</svg>
