<?xml version="1.0" encoding="utf-8"?>
<!-- Generator: Adobe Illustrator 26.3.1, SVG Export Plug-In . SVG Version: 6.00 Build 0)  -->
<svg version="1.1" id="Layer_1" xmlns:svgjs="http://svgjs.dev/svgjs"
	 xmlns="http://www.w3.org/2000/svg" xmlns:xlink="http://www.w3.org/1999/xlink" x="0px" y="0px" width="2400px" height="800px"
	 viewBox="0 0 2400 800" style="enable-background:new 0 0 2400 800;" xml:space="preserve">
<style type="text/css">
	.st0{opacity:0.05;fill:#3AA89B;enable-background:new    ;}
	.st1{opacity:0.29;fill:#3AA89B;enable-background:new    ;}
	.st2{opacity:0.53;fill:#3AA89B;enable-background:new    ;}
	.st3{opacity:0.76;fill:#3AA89B;enable-background:new    ;}
	.st4{fill:#3AA89B;}
</style>
<g transform="matrix(1,0,0,1,4.3314208984375,280.4195818901062)">
	<path class="st0" d="M2395.668,404.8v114.78h-2400V393.2c103.2,0.84,285.94,7.66,484.33,2.96c202.08-4.79,280-28.29,480-26
		c200,2.29,280,35.33,480,37c200,1.67,280-29,480-29C2118.098,378.16,2245.479,323.83,2395.668,404.8z"/>
	<path class="st1" d="M2395.668,431.8v87.78h-2400V420.2c103.2,0.84,285.94,7.66,484.33,2.96c202.08-4.79,280-28.29,480-26
		c200,2.29,280,35.33,480,37c200,1.67,280-29,480-29C2118.098,405.16,2245.479,350.83,2395.668,431.8z"/>
	<path class="st2" d="M2395.668,458.8v60.78h-2400V447.2c103.2,0.84,285.94,7.66,484.33,2.96c202.08-4.79,280-28.29,480-26
		c200,2.29,280,35.33,480,37c200,1.67,280-29,480-29C2118.098,432.16,2245.479,377.83,2395.668,458.8z"/>
	<path class="st3" d="M2395.668,485.8v33.78h-2400V474.2c103.2,0.84,285.94,7.66,484.33,2.96c202.08-4.79,280-28.29,480-26
		c200,2.29,280,35.33,480,37c200,1.67,280-29,480-29C2118.098,459.16,2245.479,404.83,2395.668,485.8z"/>
	<path class="st4" d="M2395.668,512.8v6.78h-2400V501.2c103.2,0.84,285.94,7.66,484.33,2.96c202.08-4.79,280-28.29,480-26
		c200,2.29,280,35.33,480,37c200,1.67,280-29,480-29C2118.098,486.16,2245.479,431.83,2395.668,512.8z"/>
</g>
</svg>
