<?xml version="1.0" encoding="utf-8"?>
<!-- Generator: Adobe Illustrator 26.3.1, SVG Export Plug-In . SVG Version: 6.00 Build 0)  -->
<svg version="1.1" id="Layer_1" xmlns:svgjs="http://svgjs.dev/svgjs"
	 xmlns="http://www.w3.org/2000/svg" xmlns:xlink="http://www.w3.org/1999/xlink" x="0px" y="0px" width="2400px" height="800px"
	 viewBox="0 0 2400 800" style="enable-background:new 0 0 2400 800;" xml:space="preserve">
<style type="text/css">
	.st0{opacity:0.05;fill:#3AA89B;enable-background:new    ;}
	.st1{opacity:0.29;fill:#3AA89B;enable-background:new    ;}
	.st2{opacity:0.53;fill:#3AA89B;enable-background:new    ;}
	.st3{opacity:0.76;fill:#3AA89B;enable-background:new    ;}
	.st4{fill:#3AA89B;}
</style>
<g transform="matrix(1,0,0,1,4.3314208984375,280.2323794364929)">
	<path class="st0" d="M2395.668-280.232v108c-150.19,82.09-277.57,33.75-475.67,35.61c-200,1.87-280-28.59-480-29
		c-200-0.42-280,25.54-480,27c-200,1.46-277.92-16.25-480-20c-198.39-3.68-381.13,1.39-484.33,1.97v-118.95h2391.29
		C2389.848-277.092,2392.759-278.642,2395.668-280.232z"/>
	<path class="st1" d="M2386.958-275.602c2.89-1.49,5.8-3.04,8.71-4.63v81c-150.19,82.09-277.57,33.75-475.67,35.61
		c-200,1.87-280-28.59-480-29c-200-0.42-280,25.54-480,27c-200,1.46-277.92-16.25-480-20c-198.39-3.68-381.13,1.39-484.33,1.97
		v-91.95H2386.958z"/>
	<path class="st2" d="M2386.958-275.602c2.89-1.49,5.8-3.04,8.71-4.63v54c-150.19,82.09-277.57,33.75-475.67,35.61
		c-200,1.87-280-28.59-480-29c-200-0.42-280,25.54-480,27c-200,1.46-277.92-16.25-480-20c-198.39-3.68-381.13,1.39-484.33,1.97
		v-64.95H2386.958z"/>
	<path class="st3" d="M2386.958-275.602c2.89-1.49,5.8-3.04,8.71-4.63v27c-150.19,82.09-277.57,33.75-475.67,35.61
		c-200,1.87-280-28.59-480-29c-200-0.42-280,25.54-480,27c-200,1.46-277.92-16.25-480-20c-198.39-3.68-381.13,1.39-484.33,1.97
		v-37.95H2386.958z"/>
	<path class="st4" d="M-4.331-275.602h2391.29c-146.45,75.6-272.7,29.16-466.96,30.98c-200,1.87-280-28.59-480-29
		c-200-0.42-280,25.54-480,27c-200,1.46-277.92-16.25-480-20c-198.39-3.68-381.13,1.39-484.33,1.97V-275.602z"/>
</g>
<path class="st4" d="M2391.29,156.071c2.89-1.49,5.8-3.04,8.71-4.63v4.63H2391.29z"/>
</svg>
