<?xml version="1.0" encoding="utf-8"?>
<!-- Generator: Adobe Illustrator 26.3.1, SVG Export Plug-In . SVG Version: 6.00 Build 0)  -->
<svg version="1.1" id="Layer_1" xmlns:svgjs="http://svgjs.dev/svgjs"
	 xmlns="http://www.w3.org/2000/svg" xmlns:xlink="http://www.w3.org/1999/xlink" x="0px" y="0px" width="2400px" height="800px"
	 viewBox="0 0 2400 800" style="enable-background:new 0 0 2400 800;" xml:space="preserve">
<style type="text/css">
	.st0{opacity:0.05;fill:#3AA89B;enable-background:new    ;}
	.st1{opacity:0.24;fill:#3AA89B;enable-background:new    ;}
	.st2{opacity:0.43;fill:#3AA89B;enable-background:new    ;}
	.st3{opacity:0.62;fill:#3AA89B;enable-background:new    ;}
	.st4{opacity:0.81;fill:#3AA89B;enable-background:new    ;}
	.st5{fill:#3AA89B;}
</style>
<g transform="matrix(1,0,0,1,4.3314208984375,216.5079050064087)">
	<path class="st0" d="M2395.668,360.782v222.71h-2400v-237.07c103.19,5.22,285.93,29.3,484.33,21.73c202.08-7.71,280-57.96,480-59
		c200-1.04,280,49.62,480,54c200,4.37,280-33,480-33C2118.098,330.152,2245.479,279.542,2395.668,360.782z"/>
	<path class="st1" d="M2395.668,402.782v180.71h-2400v-195.07c103.19,5.22,285.93,29.3,484.33,21.73c202.08-7.71,280-57.96,480-59
		c200-1.04,280,49.62,480,54c200,4.37,280-33,480-33C2118.098,372.152,2245.479,321.542,2395.668,402.782z"/>
	<path class="st2" d="M2395.668,444.782v138.71h-2400v-153.07c103.19,5.22,285.93,29.3,484.33,21.73c202.08-7.71,280-57.96,480-59
		c200-1.04,280,49.62,480,54c200,4.37,280-33,480-33C2118.098,414.152,2245.479,363.542,2395.668,444.782z"/>
	<path class="st3" d="M2395.668,486.782v96.71h-2400v-111.07c103.19,5.22,285.93,29.3,484.33,21.73c202.08-7.71,280-57.96,480-59
		c200-1.04,280,49.62,480,54c200,4.37,280-33,480-33C2118.098,456.152,2245.479,405.542,2395.668,486.782z"/>
	<path class="st4" d="M2395.668,528.782v54.71h-2400v-69.07c103.19,5.22,285.93,29.3,484.33,21.73c202.08-7.71,280-57.96,480-59
		c200-1.04,280,49.62,480,54c200,4.37,280-33,480-33C2118.098,498.152,2245.479,447.542,2395.668,528.782z"/>
	<path class="st5" d="M2395.668,570.782v12.71h-2400v-27.07c103.19,5.22,285.93,29.3,484.33,21.73c202.08-7.71,280-57.96,480-59
		c200-1.04,280,49.62,480,54c200,4.37,280-33,480-33C2118.098,540.152,2245.479,489.542,2395.668,570.782z"/>
</g>
</svg>
