<?xml version="1.0" encoding="utf-8"?>
<!-- Generator: Adobe Illustrator 26.3.1, SVG Export Plug-In . SVG Version: 6.00 Build 0)  -->
<svg version="1.1" id="Layer_1" xmlns:svgjs="http://svgjs.dev/svgjs"
	 xmlns="http://www.w3.org/2000/svg" xmlns:xlink="http://www.w3.org/1999/xlink" x="0px" y="0px" width="2400px" height="800px"
	 viewBox="0 0 2400 800" style="enable-background:new 0 0 2400 800;" xml:space="preserve">
<style type="text/css">
	.st0{opacity:0.05;fill:#3AA89B;enable-background:new    ;}
	.st1{opacity:0.24;fill:#3AA89B;enable-background:new    ;}
	.st2{opacity:0.43;fill:#3AA89B;enable-background:new    ;}
	.st3{opacity:0.62;fill:#3AA89B;enable-background:new    ;}
	.st4{opacity:0.81;fill:#3AA89B;enable-background:new    ;}
	.st5{fill:#3AA89B;}
</style>
<g transform="matrix(1,0,0,1,4.3314208984375,216.65787029266357)">
	<path class="st0" d="M2395.668,107.052v-210c-150.19,83.14-277.57,37.16-475.67,37.57c-200,0.42-280-37.79-480-38
		c-200-0.21-280,35.13-480,37c-200,1.88-277.92-23-480-28c-198.39-4.91-381.13,2.88-484.33,3.95v210
		c103.2-1.07,285.94-8.86,484.33-3.95c202.08,5,280,29.88,480,28c200-1.87,280-37.21,480-37c200,0.21,280,38.42,480,38
		C2118.098,144.212,2245.479,190.192,2395.668,107.052z"/>
	<path class="st1" d="M2395.668,65.052v-168c-150.19,83.14-277.57,37.16-475.67,37.57c-200,0.42-280-37.79-480-38
		c-200-0.21-280,35.13-480,37c-200,1.88-277.92-23-480-28c-198.39-4.91-381.13,2.88-484.33,3.95v168
		c103.2-1.07,285.94-8.86,484.33-3.95c202.08,5,280,29.88,480,28c200-1.87,280-37.21,480-37c200,0.21,280,38.42,480,38
		C2118.098,102.212,2245.479,148.192,2395.668,65.052z"/>
	<path class="st2" d="M2395.668,23.052v-126c-150.19,83.14-277.57,37.16-475.67,37.57c-200,0.42-280-37.79-480-38
		c-200-0.21-280,35.13-480,37c-200,1.88-277.92-23-480-28c-198.39-4.91-381.13,2.88-484.33,3.95v126
		c103.2-1.07,285.94-8.86,484.33-3.95c202.08,5,280,29.88,480,28c200-1.87,280-37.21,480-37c200,0.21,280,38.42,480,38
		C2118.098,60.212,2245.479,106.192,2395.668,23.052z"/>
	<path class="st3" d="M2395.668-18.948v-84c-150.19,83.14-277.57,37.16-475.67,37.57c-200,0.42-280-37.79-480-38
		c-200-0.21-280,35.13-480,37c-200,1.88-277.92-23-480-28c-198.39-4.91-381.13,2.88-484.33,3.95v84
		c103.2-1.07,285.94-8.86,484.33-3.95c202.08,5,280,29.88,480,28c200-1.87,280-37.21,480-37c200,0.21,280,38.42,480,38
		C2118.098,18.212,2245.479,64.192,2395.668-18.948z"/>
	<path class="st4" d="M2395.668-60.948v-42c-150.19,83.14-277.57,37.16-475.67,37.57c-200,0.42-280-37.79-480-38
		c-200-0.21-280,35.13-480,37c-200,1.88-277.92-23-480-28c-198.39-4.91-381.13,2.88-484.33,3.95v42
		c103.2-1.07,285.94-8.86,484.33-3.95c202.08,5,280,29.88,480,28c200-1.87,280-37.21,480-37c200,0.21,280,38.42,480,38
		C2118.098-23.788,2245.479,22.192,2395.668-60.948z"/>
	<path class="st5" d="M2395.668-216.658v113.71c-150.19,83.14-277.57,37.16-475.67,37.57c-200,0.42-280-37.79-480-38
		c-200-0.21-280,35.13-480,37c-200,1.88-277.92-23-480-28c-198.39-4.91-381.13,2.88-484.33,3.95v-126.23H2395.668z"/>
</g>
</svg>
