<?xml version="1.0" encoding="UTF-8"?><svg id="a" xmlns="http://www.w3.org/2000/svg" width="2400" height="456.32" viewBox="0 0 2400 456.32"><defs><style>.b{opacity:.81;}.b,.c,.d,.e,.f{isolation:isolate;}.c{opacity:.05;}.d{opacity:.62;}.e{opacity:.43;}.f{opacity:.24;}</style></defs><g transform="matrix(1,0,0,1,7.6488037109375,226.89382886886597)"><path class="c" d="M2400,18.02V456.32H0V57.84c65.07,1.67,182.1,12.71,307.65,6.94,127.08-5.83,175-37.08,300-35,125,2.09,175,43.13,300,45,125,1.88,175-36.2,300-36,125,.21,175,37.63,300,37,125-.62,175-42.08,300-40,125,2.09,175,52.71,300,50,122.19-2.64,182.67-132.38,292.35-67.76Z"/><path class="f" d="M2400,60.02V456.32H0V99.84c65.07,1.67,182.1,12.71,307.65,6.94,127.08-5.83,175-37.08,300-35,125,2.09,175,43.13,300,45,125,1.88,175-36.2,300-36,125,.21,175,37.63,300,37,125-.62,175-42.08,300-40,125,2.09,175,52.71,300,50,122.19-2.64,182.67-132.38,292.35-67.76Z"/><path class="e" d="M2400,102.02V456.32H0V141.84c65.07,1.67,182.1,12.71,307.65,6.94,127.08-5.83,175-37.08,300-35,125,2.09,175,43.13,300,45,125,1.88,175-36.2,300-36,125,.21,175,37.63,300,37,125-.62,175-42.08,300-40,125,2.09,175,52.71,300,50,122.19-2.64,182.67-132.38,292.35-67.76Z"/><path class="d" d="M2400,144.02V456.32H0V183.84c65.07,1.67,182.1,12.71,307.65,6.94,127.08-5.83,175-37.08,300-35,125,2.09,175,43.13,300,45,125,1.88,175-36.2,300-36,125,.21,175,37.63,300,37,125-.62,175-42.08,300-40,125,2.09,175,52.71,300,50,122.19-2.64,182.67-132.38,292.35-67.76Z"/><path class="b" d="M2400,186.02V456.32H0V225.84c65.07,1.67,182.1,12.71,307.65,6.94,127.08-5.83,175-37.08,300-35,125,2.09,175,43.13,300,45,125,1.88,175-36.2,300-36,125,.21,175,37.63,300,37,125-.62,175-42.08,300-40,125,2.09,175,52.71,300,50,122.19-2.64,182.67-132.38,292.35-67.76Z"/><path d="M2400,228.02v228.3H0v-188.48c65.07,1.67,182.1,12.71,307.65,6.94,127.08-5.83,175-37.08,300-35,125,2.09,175,43.13,300,45,125,1.88,175-36.2,300-36,125,.21,175,37.63,300,37,125-.62,175-42.08,300-40,125,2.09,175,52.71,300,50,122.19-2.64,182.67-132.38,292.35-67.76Z"/></g></svg>